<svg width="52" height="53" viewBox="0 0 52 53" fill="none" xmlns="http://www.w3.org/2000/svg">
                        <path opacity="0.25" fill-rule="evenodd" clip-rule="evenodd"
                            d="M26.154 51.1947C39.7388 51.1947 50.7514 40.1821 50.7514 26.5974C50.7514 13.0126 39.7388 2 26.154 2C12.5693 2 1.55664 13.0126 1.55664 26.5974C1.55664 40.1821 12.5693 51.1947 26.154 51.1947Z"
                            stroke="white" stroke-width="2.10835" />
                        <path
                            d="M34.1939 22.0491C34.0797 21.9201 33.8957 21.8876 33.7447 21.9672C33.6508 22.0166 33.4743 22.0815 33.2648 22.1456C33.5292 21.7841 33.7417 21.3793 33.8356 21.0155C33.8762 20.8586 33.8168 20.6933 33.6876 20.5998C33.5585 20.5071 33.3865 20.5071 33.2573 20.5998C33.0538 20.7458 32.0714 21.1846 31.4503 21.3268C30.0466 20.0622 28.413 19.9309 26.7149 20.9506C25.3345 21.7795 25.034 23.4651 25.0926 24.4925C21.933 24.1797 19.969 22.4631 18.8634 21.0425C18.7861 20.9428 18.6614 20.8903 18.5442 20.898C18.421 20.9073 18.3099 20.9776 18.2468 21.0865C17.7241 21.9942 17.5791 22.9977 17.8292 23.9888C17.9659 24.5296 18.2047 25.0062 18.4819 25.3925C18.3489 25.3253 18.2205 25.2411 18.0996 25.1407C17.9884 25.0464 17.833 25.0286 17.7015 25.0912C17.5709 25.1553 17.4875 25.2913 17.4875 25.4404C17.4875 27.1422 18.5224 28.2778 19.489 28.8711C19.3328 28.8518 19.1698 28.8163 19.0054 28.7645C18.8642 28.7205 18.711 28.7645 18.6133 28.8788C18.5157 28.9924 18.4924 29.1546 18.5532 29.2929C19.0962 30.5281 20.1252 31.3779 21.3982 31.6861C20.2867 32.3574 18.7988 32.6865 17.4364 32.5251C17.2599 32.4996 17.0917 32.6147 17.0361 32.7893C16.9805 32.9639 17.0534 33.1554 17.2089 33.245C19.2757 34.4386 21.1444 34.865 22.7591 34.865C25.1091 34.865 26.9229 33.9627 28.027 33.208C31.0034 31.1763 32.8585 27.5285 32.6001 24.2646C33.077 23.9023 33.7905 23.2333 34.2329 22.5141C34.3245 22.3689 34.308 22.1773 34.1939 22.0491Z"
                            fill="white" />
                    </svg>