<svg width="230" height="79" viewBox="0 0 230 79" fill="none" xmlns="http://www.w3.org/2000/svg">
                        <path
                            d="M115.65 70.4271C114.982 70.4271 114.379 70.3135 113.841 70.0863C113.308 69.8591 112.867 69.5358 112.518 69.1163C112.172 68.6925 111.947 68.1923 111.843 67.6155L113.048 67.4255C113.201 68.0197 113.518 68.485 113.999 68.8214C114.484 69.1535 115.054 69.3195 115.709 69.3195C116.133 69.3195 116.515 69.254 116.856 69.1229C117.201 68.9874 117.474 68.7952 117.675 68.5462C117.876 68.2971 117.977 68.0022 117.977 67.6614C117.977 67.4517 117.94 67.2726 117.865 67.124C117.796 66.9711 117.697 66.8422 117.57 66.7373C117.448 66.6281 117.308 66.5364 117.151 66.4621C116.994 66.3878 116.83 66.3266 116.66 66.2786L114.254 65.5642C113.992 65.4856 113.739 65.3873 113.494 65.2693C113.249 65.147 113.031 64.9962 112.839 64.8171C112.646 64.6336 112.494 64.4151 112.38 64.1617C112.266 63.9039 112.21 63.6003 112.21 63.2508C112.21 62.6915 112.354 62.2153 112.642 61.8221C112.935 61.4245 113.33 61.1208 113.828 60.9111C114.326 60.7014 114.888 60.5987 115.513 60.6031C116.146 60.6074 116.712 60.721 117.21 60.9439C117.712 61.1623 118.128 61.4769 118.455 61.8876C118.787 62.2983 119.01 62.7898 119.124 63.3622L117.885 63.5784C117.82 63.194 117.673 62.8641 117.446 62.5888C117.223 62.3092 116.944 62.0951 116.607 61.9466C116.271 61.7937 115.901 61.715 115.5 61.7106C115.115 61.7063 114.768 61.7674 114.457 61.8941C114.147 62.0208 113.9 62.1978 113.717 62.425C113.533 62.6478 113.442 62.9056 113.442 63.1983C113.442 63.4867 113.525 63.7204 113.691 63.8996C113.857 64.0743 114.06 64.2142 114.3 64.319C114.545 64.4195 114.783 64.5025 115.015 64.5681L116.81 65.0858C117.016 65.1426 117.252 65.2212 117.518 65.3217C117.789 65.4222 118.051 65.5642 118.305 65.7477C118.558 65.9269 118.768 66.1672 118.934 66.4686C119.1 66.7657 119.183 67.1415 119.183 67.5959C119.183 68.0503 119.091 68.4544 118.907 68.8083C118.728 69.1622 118.477 69.4593 118.154 69.6996C117.83 69.9356 117.455 70.1147 117.027 70.237C116.598 70.3637 116.14 70.4271 115.65 70.4271ZM123.244 70.414C122.79 70.414 122.399 70.3419 122.071 70.1977C121.748 70.0535 121.479 69.8613 121.265 69.621C121.051 69.3807 120.883 69.1142 120.761 68.8214C120.638 68.5287 120.551 68.2294 120.498 67.9236C120.45 67.6177 120.426 67.3315 120.426 67.065V63.1525H121.606V66.698C121.606 67.0301 121.637 67.3512 121.698 67.6614C121.759 67.9716 121.862 68.2512 122.006 68.5003C122.154 68.7493 122.351 68.9459 122.596 69.0901C122.845 69.2343 123.155 69.3064 123.526 69.3064C123.819 69.3064 124.086 69.2561 124.326 69.1557C124.566 69.0552 124.771 68.9066 124.942 68.71C125.112 68.509 125.243 68.2556 125.335 67.9498C125.427 67.6439 125.473 67.2879 125.473 66.8815L126.24 67.1175C126.24 67.799 126.115 68.3867 125.866 68.8804C125.621 69.3741 125.274 69.7542 124.824 70.0207C124.378 70.2829 123.852 70.414 123.244 70.414ZM125.604 70.2305V68.3364H125.473V63.1525H126.646V70.2305H125.604ZM131.463 70.4271C130.746 70.4271 130.137 70.2676 129.634 69.9487C129.136 69.6253 128.756 69.1819 128.494 68.6183C128.232 68.0546 128.096 67.4124 128.088 66.6915C128.096 65.9531 128.234 65.3043 128.5 64.745C128.771 64.1814 129.158 63.7423 129.66 63.4277C130.163 63.1131 130.768 62.9558 131.476 62.9558C132.223 62.9558 132.865 63.1393 133.403 63.5064C133.944 63.8734 134.307 64.3758 134.491 65.0137L133.337 65.3611C133.189 64.9504 132.946 64.6314 132.61 64.4042C132.278 64.177 131.895 64.0634 131.463 64.0634C130.978 64.0634 130.578 64.177 130.263 64.4042C129.949 64.627 129.715 64.9373 129.562 65.3348C129.409 65.7281 129.331 66.1803 129.326 66.6915C129.335 67.4779 129.516 68.1136 129.87 68.5986C130.228 69.0792 130.759 69.3195 131.463 69.3195C131.926 69.3195 132.31 69.2146 132.616 69.0049C132.922 68.7908 133.154 68.4828 133.311 68.0809L134.491 68.3889C134.246 69.0486 133.864 69.5533 133.344 69.9028C132.824 70.2523 132.197 70.4271 131.463 70.4271ZM138.618 70.4271C137.902 70.4271 137.292 70.2676 136.79 69.9487C136.291 69.6253 135.911 69.1819 135.649 68.6183C135.387 68.0546 135.252 67.4124 135.243 66.6915C135.252 65.9531 135.389 65.3043 135.656 64.745C135.927 64.1814 136.313 63.7423 136.816 63.4277C137.318 63.1131 137.923 62.9558 138.631 62.9558C139.378 62.9558 140.021 63.1393 140.558 63.5064C141.1 63.8734 141.462 64.3758 141.646 65.0137L140.492 65.3611C140.344 64.9504 140.101 64.6314 139.765 64.4042C139.433 64.177 139.051 64.0634 138.618 64.0634C138.133 64.0634 137.733 64.177 137.419 64.4042C137.104 64.627 136.87 64.9373 136.717 65.3348C136.565 65.7281 136.486 66.1803 136.482 66.6915C136.49 67.4779 136.672 68.1136 137.026 68.5986C137.384 69.0792 137.915 69.3195 138.618 69.3195C139.081 69.3195 139.466 69.2146 139.772 69.0049C140.077 68.7908 140.309 68.4828 140.466 68.0809L141.646 68.3889C141.401 69.0486 141.019 69.5533 140.499 69.9028C139.979 70.2523 139.352 70.4271 138.618 70.4271ZM145.859 70.4271C145.164 70.4271 144.557 70.2742 144.037 69.9683C143.521 69.6581 143.119 69.2278 142.831 68.6772C142.542 68.1224 142.398 67.4757 142.398 66.7373C142.398 65.964 142.54 65.2955 142.824 64.7319C143.108 64.1639 143.504 63.727 144.01 63.4212C144.522 63.1109 145.12 62.9558 145.806 62.9558C146.518 62.9558 147.123 63.1197 147.622 63.4474C148.124 63.7751 148.5 64.2426 148.749 64.8499C149.002 65.4572 149.111 66.1803 149.076 67.0191H147.897V66.5997C147.884 65.7303 147.707 65.0814 147.366 64.6533C147.025 64.2207 146.518 64.0044 145.845 64.0044C145.125 64.0044 144.576 64.236 144.2 64.6991C143.825 65.1623 143.637 65.8264 143.637 66.6915C143.637 67.526 143.825 68.1726 144.2 68.6314C144.576 69.0901 145.111 69.3195 145.806 69.3195C146.274 69.3195 146.68 69.2125 147.025 68.9984C147.37 68.7843 147.641 68.4763 147.838 68.0743L148.958 68.461C148.683 69.0858 148.268 69.5707 147.713 69.9159C147.163 70.2567 146.545 70.4271 145.859 70.4271ZM143.244 67.0191V66.082H148.474V67.0191H143.244ZM153.209 70.4205C152.366 70.4205 151.674 70.237 151.132 69.87C150.595 69.4986 150.265 68.9809 150.142 68.3168L151.335 68.1267C151.431 68.5112 151.652 68.8171 151.997 69.0442C152.342 69.2671 152.77 69.3785 153.282 69.3785C153.767 69.3785 154.147 69.278 154.422 69.077C154.697 68.876 154.835 68.603 154.835 68.2578C154.835 68.0568 154.789 67.8952 154.697 67.7728C154.605 67.6461 154.415 67.5282 154.127 67.4189C153.843 67.3097 153.413 67.1786 152.836 67.0257C152.211 66.8597 151.72 66.6871 151.361 66.508C151.003 66.3288 150.747 66.1213 150.595 65.8854C150.442 65.6494 150.365 65.3632 150.365 65.0268C150.365 64.6117 150.479 64.2491 150.706 63.9389C150.933 63.6243 151.25 63.3818 151.656 63.2114C152.067 63.041 152.543 62.9558 153.085 62.9558C153.622 62.9558 154.103 63.041 154.527 63.2114C154.951 63.3818 155.291 63.6243 155.549 63.9389C155.811 64.2491 155.966 64.6117 156.014 65.0268L154.822 65.2431C154.765 64.863 154.581 64.5637 154.271 64.3452C153.965 64.1268 153.57 64.011 153.085 63.9979C152.626 63.9804 152.253 64.0612 151.964 64.2404C151.68 64.4195 151.538 64.662 151.538 64.9678C151.538 65.1382 151.591 65.2846 151.696 65.4069C151.805 65.5293 152.004 65.6451 152.292 65.7543C152.585 65.8635 153.009 65.988 153.563 66.1278C154.188 66.2851 154.68 66.4577 155.038 66.6456C155.401 66.8291 155.658 67.0475 155.811 67.301C155.964 67.55 156.041 67.858 156.041 68.225C156.041 68.9066 155.789 69.444 155.287 69.8372C154.785 70.2261 154.092 70.4205 153.209 70.4205ZM160.16 70.4205C159.317 70.4205 158.624 70.237 158.082 69.87C157.545 69.4986 157.215 68.9809 157.093 68.3168L158.286 68.1267C158.382 68.5112 158.602 68.8171 158.948 69.0442C159.293 69.2671 159.721 69.3785 160.232 69.3785C160.717 69.3785 161.097 69.278 161.372 69.077C161.648 68.876 161.785 68.603 161.785 68.2578C161.785 68.0568 161.739 67.8952 161.648 67.7728C161.556 67.6461 161.366 67.5282 161.078 67.4189C160.794 67.3097 160.363 67.1786 159.786 67.0257C159.162 66.8597 158.67 66.6871 158.312 66.508C157.954 66.3288 157.698 66.1213 157.545 65.8854C157.392 65.6494 157.316 65.3632 157.316 65.0268C157.316 64.6117 157.429 64.2491 157.657 63.9389C157.884 63.6243 158.2 63.3818 158.607 63.2114C159.017 63.041 159.494 62.9558 160.036 62.9558C160.573 62.9558 161.054 63.041 161.477 63.2114C161.901 63.3818 162.242 63.6243 162.5 63.9389C162.762 64.2491 162.917 64.6117 162.965 65.0268L161.772 65.2431C161.715 64.863 161.532 64.5637 161.222 64.3452C160.916 64.1268 160.52 64.011 160.036 63.9979C159.577 63.9804 159.203 64.0612 158.915 64.2404C158.631 64.4195 158.489 64.662 158.489 64.9678C158.489 65.1382 158.541 65.2846 158.646 65.4069C158.755 65.5293 158.954 65.6451 159.243 65.7543C159.535 65.8635 159.959 65.988 160.514 66.1278C161.139 66.2851 161.63 66.4577 161.989 66.6456C162.351 66.8291 162.609 67.0475 162.762 67.301C162.915 67.55 162.991 67.858 162.991 68.225C162.991 68.9066 162.74 69.444 162.238 69.8372C161.735 70.2261 161.043 70.4205 160.16 70.4205ZM169.735 70.4205C168.891 70.4205 168.199 70.237 167.657 69.87C167.12 69.4986 166.79 68.9809 166.667 68.3168L167.86 68.1267C167.956 68.5112 168.177 68.8171 168.522 69.0442C168.867 69.2671 169.295 69.3785 169.807 69.3785C170.292 69.3785 170.672 69.278 170.947 69.077C171.222 68.876 171.36 68.603 171.36 68.2578C171.36 68.0568 171.314 67.8952 171.222 67.7728C171.131 67.6461 170.94 67.5282 170.652 67.4189C170.368 67.3097 169.938 67.1786 169.361 67.0257C168.736 66.8597 168.245 66.6871 167.886 66.508C167.528 66.3288 167.273 66.1213 167.12 65.8854C166.967 65.6494 166.89 65.3632 166.89 65.0268C166.89 64.6117 167.004 64.2491 167.231 63.9389C167.458 63.6243 167.775 63.3818 168.181 63.2114C168.592 63.041 169.068 62.9558 169.61 62.9558C170.147 62.9558 170.628 63.041 171.052 63.2114C171.476 63.3818 171.816 63.6243 172.074 63.9389C172.336 64.2491 172.492 64.6117 172.54 65.0268L171.347 65.2431C171.29 64.863 171.107 64.5637 170.796 64.3452C170.49 64.1268 170.095 64.011 169.61 63.9979C169.151 63.9804 168.778 64.0612 168.489 64.2404C168.205 64.4195 168.063 64.662 168.063 64.9678C168.063 65.1382 168.116 65.2846 168.221 65.4069C168.33 65.5293 168.529 65.6451 168.817 65.7543C169.11 65.8635 169.534 65.988 170.088 66.1278C170.713 66.2851 171.205 66.4577 171.563 66.6456C171.926 66.8291 172.183 67.0475 172.336 67.301C172.489 67.55 172.566 67.858 172.566 68.225C172.566 68.9066 172.315 69.444 171.812 69.8372C171.31 70.2261 170.617 70.4205 169.735 70.4205ZM174.738 73.3763L176.108 69.6537L176.128 70.7548L173.034 63.1525H174.26L176.685 69.2671H176.265L178.539 63.1525H179.726L175.872 73.3763H174.738ZM183.482 70.4205C182.639 70.4205 181.946 70.237 181.405 69.87C180.867 69.4986 180.537 68.9809 180.415 68.3168L181.608 68.1267C181.704 68.5112 181.924 68.8171 182.27 69.0442C182.615 69.2671 183.043 69.3785 183.554 69.3785C184.039 69.3785 184.419 69.278 184.694 69.077C184.97 68.876 185.107 68.603 185.107 68.2578C185.107 68.0568 185.061 67.8952 184.97 67.7728C184.878 67.6461 184.688 67.5282 184.4 67.4189C184.116 67.3097 183.685 67.1786 183.108 67.0257C182.484 66.8597 181.992 66.6871 181.634 66.508C181.276 66.3288 181.02 66.1213 180.867 65.8854C180.714 65.6494 180.638 65.3632 180.638 65.0268C180.638 64.6117 180.751 64.2491 180.979 63.9389C181.206 63.6243 181.522 63.3818 181.929 63.2114C182.339 63.041 182.816 62.9558 183.358 62.9558C183.895 62.9558 184.376 63.041 184.799 63.2114C185.223 63.3818 185.564 63.6243 185.822 63.9389C186.084 64.2491 186.239 64.6117 186.287 65.0268L185.094 65.2431C185.037 64.863 184.854 64.5637 184.544 64.3452C184.238 64.1268 183.842 64.011 183.358 63.9979C182.899 63.9804 182.525 64.0612 182.237 64.2404C181.953 64.4195 181.811 64.662 181.811 64.9678C181.811 65.1382 181.863 65.2846 181.968 65.4069C182.077 65.5293 182.276 65.6451 182.565 65.7543C182.857 65.8635 183.281 65.988 183.836 66.1278C184.461 66.2851 184.952 66.4577 185.311 66.6456C185.673 66.8291 185.931 67.0475 186.084 67.301C186.237 67.55 186.313 67.858 186.313 68.225C186.313 68.9066 186.062 69.444 185.56 69.8372C185.057 70.2261 184.365 70.4205 183.482 70.4205ZM191.711 70.2305C191.291 70.3135 190.876 70.3463 190.465 70.3288C190.059 70.3157 189.696 70.2348 189.377 70.0863C189.058 69.9334 188.816 69.6974 188.65 69.3785C188.51 69.0989 188.434 68.8171 188.421 68.5331C188.412 68.2447 188.407 67.9192 188.407 67.5566V61.1863H189.574V67.5041C189.574 67.7925 189.576 68.0393 189.581 68.2447C189.589 68.45 189.635 68.627 189.718 68.7755C189.875 69.0552 190.125 69.219 190.465 69.2671C190.81 69.3151 191.226 69.302 191.711 69.2278V70.2305ZM186.972 64.1159V63.1525H191.711V64.1159H186.972ZM195.92 70.4271C195.226 70.4271 194.618 70.2742 194.098 69.9683C193.583 69.6581 193.181 69.2278 192.892 68.6772C192.604 68.1224 192.46 67.4757 192.46 66.7373C192.46 65.964 192.602 65.2955 192.886 64.7319C193.17 64.1639 193.565 63.727 194.072 63.4212C194.583 63.1109 195.182 62.9558 195.868 62.9558C196.58 62.9558 197.185 63.1197 197.683 63.4474C198.186 63.7751 198.561 64.2426 198.81 64.8499C199.064 65.4572 199.173 66.1803 199.138 67.0191H197.958V66.5997C197.945 65.7303 197.768 65.0814 197.428 64.6533C197.087 64.2207 196.58 64.0044 195.907 64.0044C195.186 64.0044 194.638 64.236 194.262 64.6991C193.886 65.1623 193.699 65.8264 193.699 66.6915C193.699 67.526 193.886 68.1726 194.262 68.6314C194.638 69.0901 195.173 69.3195 195.868 69.3195C196.335 69.3195 196.742 69.2125 197.087 68.9984C197.432 68.7843 197.703 68.4763 197.899 68.0743L199.02 68.461C198.745 69.0858 198.33 69.5707 197.775 69.9159C197.224 70.2567 196.606 70.4271 195.92 70.4271ZM193.305 67.0191V66.082H198.535V67.0191H193.305ZM208.866 70.2305L208.873 65.7019C208.873 65.1732 208.731 64.7603 208.447 64.4632C208.167 64.1617 207.802 64.011 207.352 64.011C207.09 64.011 206.841 64.0722 206.605 64.1945C206.369 64.3125 206.177 64.5003 206.028 64.7581C205.88 65.0115 205.806 65.337 205.806 65.7346L205.189 65.4856C205.181 64.9831 205.283 64.544 205.497 64.1683C205.716 63.7882 206.013 63.4932 206.389 63.2835C206.765 63.0738 207.188 62.969 207.66 62.969C208.399 62.969 208.98 63.194 209.404 63.644C209.827 64.0896 210.039 64.6904 210.039 65.4463L210.033 70.2305H208.866ZM200.399 70.2305V63.1525H201.441V65.0465H201.572V70.2305H200.399ZM204.639 70.2305L204.646 65.7477C204.646 65.206 204.506 64.7821 204.226 64.4763C203.946 64.1661 203.575 64.011 203.112 64.011C202.653 64.011 202.282 64.1683 201.998 64.4829C201.714 64.7974 201.572 65.2147 201.572 65.7346L200.956 65.3676C200.956 64.9089 201.065 64.4982 201.283 64.1355C201.502 63.7729 201.799 63.4889 202.175 63.2835C202.551 63.0738 202.977 62.969 203.453 62.969C203.929 62.969 204.344 63.0694 204.698 63.2704C205.052 63.4714 205.325 63.7598 205.517 64.1355C205.709 64.5069 205.806 64.9504 205.806 65.4659L205.799 70.2305H204.639ZM214.42 70.4205C213.577 70.4205 212.884 70.237 212.343 69.87C211.805 69.4986 211.475 68.9809 211.353 68.3168L212.546 68.1267C212.642 68.5112 212.863 68.8171 213.208 69.0442C213.553 69.2671 213.981 69.3785 214.492 69.3785C214.977 69.3785 215.357 69.278 215.633 69.077C215.908 68.876 216.045 68.603 216.045 68.2578C216.045 68.0568 216 67.8952 215.908 67.7728C215.816 67.6461 215.626 67.5282 215.338 67.4189C215.054 67.3097 214.623 67.1786 214.047 67.0257C213.422 66.8597 212.93 66.6871 212.572 66.508C212.214 66.3288 211.958 66.1213 211.805 65.8854C211.652 65.6494 211.576 65.3632 211.576 65.0268C211.576 64.6117 211.689 64.2491 211.917 63.9389C212.144 63.6243 212.461 63.3818 212.867 63.2114C213.278 63.041 213.754 62.9558 214.296 62.9558C214.833 62.9558 215.314 63.041 215.737 63.2114C216.161 63.3818 216.502 63.6243 216.76 63.9389C217.022 64.2491 217.177 64.6117 217.225 65.0268L216.032 65.2431C215.976 64.863 215.792 64.5637 215.482 64.3452C215.176 64.1268 214.781 64.011 214.296 63.9979C213.837 63.9804 213.463 64.0612 213.175 64.2404C212.891 64.4195 212.749 64.662 212.749 64.9678C212.749 65.1382 212.801 65.2846 212.906 65.4069C213.015 65.5293 213.214 65.6451 213.503 65.7543C213.795 65.8635 214.219 65.988 214.774 66.1278C215.399 66.2851 215.89 66.4577 216.249 66.6456C216.611 66.8291 216.869 67.0475 217.022 67.301C217.175 67.55 217.251 67.858 217.251 68.225C217.251 68.9066 217 69.444 216.498 69.8372C215.995 70.2261 215.303 70.4205 214.42 70.4205Z"
                            fill="white" />
                        <path
                            d="M105.759 25.8902C100.033 25.8902 98.9282 25.3879 95.6131 25.3879C88.7317 25.3879 84.0604 29.6573 84.0604 35.735C84.0604 41.3104 88.9829 45.5799 95.3619 45.5799C96.0149 45.5799 96.6177 45.5296 97.2204 45.4794C99.983 45.7808 101.641 47.7899 101.641 50.653C101.641 53.7169 99.2798 55.8265 95.6633 55.8265C88.5308 55.7763 89.9874 48.0411 86.2705 48.0411C84.613 48.0411 83.8595 49.1963 83.8595 50.4018C83.8595 53.9681 87.8778 57.685 95.4624 57.685C102.394 57.685 107.568 54.8722 107.568 50.4018C107.568 47.6392 105.709 45.3789 101.339 44.3744C104.905 42.7168 107.166 39.5022 107.166 35.4839C107.166 33.0227 105.86 30.461 104.001 28.8034C105.508 28.4016 107.316 28.6025 107.919 27.2966C108.371 26.5431 107.969 25.8902 105.759 25.8902ZM89.887 33.1733C89.887 29.7578 91.6952 27.2966 94.6587 27.2966C98.677 27.2966 101.339 32.219 101.339 37.6939C101.339 41.1095 99.4305 43.6209 96.3163 43.6209C92.8003 43.6209 89.887 38.8492 89.887 33.1733ZM112.192 50H119.827C120.479 50 120.932 49.6986 120.932 49.2466V49.0959C120.932 47.9406 118.872 47.7899 118.872 45.831V13.1823C118.872 12.4288 118.219 11.8261 117.064 12.3786L111.991 14.8901C111.489 15.1412 111.137 15.3421 111.137 15.7942V15.9449C111.137 16.849 112.995 17.2508 112.995 19.3604V45.831C112.995 47.7899 111.137 47.9406 111.137 49.0959V49.2466C111.137 49.6986 111.539 50 112.192 50ZM137.499 50.5023C144.782 50.5023 149.604 44.9771 149.604 38.0958C149.604 31.1642 144.28 25.3879 136.344 25.3879C129.462 25.3879 123.887 30.5614 123.887 37.6939C123.887 44.3744 128.96 50.5023 137.499 50.5023ZM138.252 48.5936C133.179 48.5936 129.814 41.9634 129.814 35.735C129.814 30.2098 132.124 27.2966 135.691 27.2966C140.312 27.2966 143.677 33.1231 143.677 40.1552C143.677 45.5799 141.366 48.5936 138.252 48.5936ZM167.047 25.3879C164.334 25.3879 161.974 26.3422 160.416 28.05V13.2325C160.416 12.1777 159.663 11.8763 158.608 12.3786L153.435 14.8398C152.681 15.1914 152.43 15.3923 152.43 15.8444V15.9951C152.43 17.1001 154.59 17.2508 154.59 19.4106V45.7808C154.59 47.7899 152.681 48.0913 152.681 49.1461V49.2968C152.681 49.7489 153.033 50 153.585 50L159.01 50.1005C159.663 50.1005 160.015 49.7991 160.015 49.1461L159.964 47.3379C161.672 49.347 164.083 50.5023 167.097 50.5023C173.426 50.5023 178.7 45.178 178.7 37.5433C178.7 29.9085 173.074 25.3879 167.047 25.3879ZM166.394 48.5936C163.33 48.5936 160.416 45.1278 160.416 41.4611V32.9724C160.416 29.7578 162.777 27.2966 165.59 27.2966C169.91 27.2966 172.773 32.219 172.773 39.4017C172.773 45.2785 170.362 48.5936 166.394 48.5936ZM203.52 45.4794L202.516 35.8355C201.813 29.356 197.744 25.3879 191.415 25.3879C186.041 25.3879 182.123 27.8491 182.123 31.0135C182.123 32.4199 183.077 33.324 184.584 33.324C187.748 33.324 186.744 27.2463 191.415 27.2463C194.931 27.2463 196.137 30.2601 196.689 36.0866L196.79 37.0912C195.433 36.0364 193.424 35.3834 190.963 35.3834C185.89 35.3834 181.771 37.9953 181.821 42.9177C181.821 47.8402 185.739 50.5023 191.214 50.5023C194.78 50.5023 197.041 49.1461 198.196 47.2876C198.397 49.7489 199.653 50.3014 202.214 50.3014C204.374 50.3014 206.283 50 206.283 49.0457C206.283 47.7397 203.872 48.7443 203.52 45.4794ZM192.872 48.5936C189.758 48.5936 187.748 45.6301 187.748 42.2145C187.748 39.2008 189.707 37.2921 192.47 37.2921C195.132 37.2921 197.041 39.1003 197.242 41.9634L197.392 43.5205C197.543 46.2328 195.685 48.5936 192.872 48.5936ZM209.02 50H216.654C217.307 50 217.759 49.6986 217.759 49.2466V49.0959C217.759 47.9406 215.7 47.7899 215.7 45.831V13.1823C215.7 12.4288 215.047 11.8261 213.892 12.3786L208.819 14.8901C208.316 15.1412 207.965 15.3421 207.965 15.7942V15.9449C207.965 16.849 209.823 17.2508 209.823 19.3604V45.831C209.823 47.7899 207.965 47.9406 207.965 49.0959V49.2466C207.965 49.6986 208.367 50 209.02 50Z"
                            fill="white" />
                        <circle cx="36.1635" cy="41.9506" r="36.1635" fill="white" />
                        <path
                            d="M59.8768 42.3947C59.8768 55.8679 48.7661 66.7893 35.0614 66.7893C21.3568 66.7893 10.2461 55.8679 10.2461 42.3947C10.2461 28.9215 21.3568 18 35.0614 18C38.4148 17.9957 41.7339 18.6619 44.8172 19.958L41.1951 27.9797C38.0472 26.6849 34.5589 26.4203 31.2462 27.2251C27.9335 28.0298 24.9722 29.8613 22.8002 32.4485C20.6282 35.0358 19.3609 38.2415 19.1856 41.5915C19.0103 44.9416 19.9364 48.2582 21.8269 51.0509C23.7174 53.8435 26.472 55.964 29.6832 57.0986C32.8944 58.2333 36.3918 58.3219 39.6583 57.3514C42.9247 56.3809 45.7867 54.4027 47.821 51.7095C49.8554 49.0163 50.954 45.751 50.9545 42.3965C50.9545 42.3403 50.9545 42.2851 50.9545 42.2299L39.9505 48.8579L35.5297 42.0725L48.4823 34.4751L48.7773 34.5C48.7492 34.4503 48.7193 34.4024 48.6893 34.3536L56.353 29.8577C56.7898 30.5713 57.1883 31.3069 57.547 32.0615C58.3298 33.7017 58.9228 35.4232 59.3149 37.1935C59.6899 38.9027 59.8783 40.6462 59.8768 42.3947Z"
                            fill="#005DF2" />
                        <path
                            d="M67.6766 28.8562C64.6079 23.0227 47.976 25.4824 30.5266 34.351C26.6159 36.3302 22.844 38.5638 19.236 41.037C19.1967 41.4844 19.1771 41.937 19.1771 42.3948C19.1768 43.098 19.2247 43.8004 19.3203 44.4973C22.8553 41.4061 27.5553 38.2523 32.9828 35.4943C46.5976 28.5746 59.6298 26.7611 62.0917 31.4439C63.1218 33.3946 62.146 36.1654 59.6785 39.2355C57.5069 41.9364 54.1779 44.8674 50.0333 47.6751C47.4256 49.4312 44.7083 51.0247 41.8976 52.4463C37.8298 54.5139 33.8144 56.1285 30.1173 57.2442C24.7095 58.881 19.9833 59.4628 16.7714 58.8745C14.8283 58.5192 13.4405 57.7358 12.7897 56.4986C12.2709 55.5118 12.2625 54.315 12.7016 52.9766C11.8868 51.3155 11.2679 49.5683 10.8569 47.769C5.4256 52.9793 2.84855 57.8472 4.48917 60.9706C6.31708 64.4457 12.9592 64.9778 21.7195 62.9645C26.1797 61.94 31.1886 60.2554 36.3914 57.9641C38.1238 57.2019 39.8718 56.3734 41.6354 55.4786C43.5938 54.4838 45.4748 53.4546 47.2783 52.3911C52.1964 49.4959 56.4759 46.4075 59.8583 43.4C66.2691 37.6908 69.4595 32.2457 67.6766 28.8562Z"
                            fill="#F89F1C" />
                        <path d="M24.9997 54.5L37.969 57.2515L19.2002 74L20.5149 63.2277L25.4808 61.8773L24.9997 54.5Z"
                            fill="white" />
                        <path
                            d="M22.735 59.5936L17.7822 53.2031L33.8794 58.2238L21.6787 69.7234L22.6573 62.0275L22.735 59.5936Z"
                            fill="#F89F1C" />
                        <path
                            d="M68.1409 31.459C68.1409 48.1615 32.3816 62.3748 32.1025 62.4816L37.9646 57.251C39.1801 56.6901 40.4024 56.0979 41.6316 55.4744C56.7868 47.7758 67.5688 37.7777 68.1409 31.459Z"
                            fill="white" />
                    </svg>