<svg width="52" height="53" viewBox="0 0 52 53" fill="none" xmlns="http://www.w3.org/2000/svg">
                        <path opacity="0.25" fill-rule="evenodd" clip-rule="evenodd"
                            d="M25.8757 51.1947C39.4604 51.1947 50.4731 40.1821 50.4731 26.5974C50.4731 13.0126 39.4604 2 25.8757 2C12.2909 2 1.27832 13.0126 1.27832 26.5974C1.27832 40.1821 12.2909 51.1947 25.8757 51.1947Z"
                            stroke="white" stroke-width="2.10835" />
                        <path
                            d="M28.1149 20.3013H30.3755C30.5835 20.3013 30.7523 20.1422 30.7523 19.9462V17.816C30.7523 17.62 30.5835 17.4609 30.3755 17.4609H28.1149C25.8301 17.4609 23.9703 19.2127 23.9703 21.3664V23.8517H21.3328C21.1249 23.8517 20.9561 24.0108 20.9561 24.2067V26.337C20.9561 26.533 21.1249 26.692 21.3328 26.692H23.9703V34.1479C23.9703 34.3439 24.1391 34.503 24.3471 34.503H26.6078C26.8157 34.503 26.9845 34.3439 26.9845 34.1479V26.692H29.622C29.784 26.692 29.9279 26.5941 29.9799 26.4492L30.7335 24.3189C30.7719 24.211 30.7523 24.0917 30.6815 23.9987C30.6099 23.9064 30.4969 23.8517 30.3755 23.8517H26.9845V21.3664C26.9845 20.7792 27.4917 20.3013 28.1149 20.3013Z"
                            fill="white" />
                    </svg>