<svg width="53" height="53" viewBox="0 0 53 53" fill="none" xmlns="http://www.w3.org/2000/svg">
                        <path opacity="0.25" fill-rule="evenodd" clip-rule="evenodd"
                            d="M26.5974 51.1947C40.1821 51.1947 51.1947 40.1821 51.1947 26.5974C51.1947 13.0126 40.1821 2 26.5974 2C13.0126 2 2 13.0126 2 26.5974C2 40.1821 13.0126 51.1947 26.5974 51.1947Z"
                            stroke="white" stroke-width="2.10835" />
                        <path
                            d="M20.9524 21.6314C22.104 21.6314 23.0376 20.6978 23.0376 19.5462C23.0376 18.3945 22.104 17.4609 20.9524 17.4609C19.8008 17.4609 18.8672 18.3945 18.8672 19.5462C18.8672 20.6978 19.8008 21.6314 20.9524 21.6314Z"
                            fill="white" />
                        <path
                            d="M22.6901 23.0234H19.2147C19.0229 23.0234 18.8672 23.1791 18.8672 23.371V33.7971C18.8672 33.9889 19.0229 34.1446 19.2147 34.1446H22.6901C22.8819 34.1446 23.0376 33.9889 23.0376 33.7971V23.371C23.0376 23.1791 22.8819 23.0234 22.6901 23.0234Z"
                            fill="white" />
                        <path
                            d="M33.0465 22.4467C31.5612 21.9379 29.7032 22.3848 28.589 23.1862C28.5508 23.0368 28.4146 22.9256 28.2526 22.9256H24.7772C24.5854 22.9256 24.4297 23.0813 24.4297 23.2731V33.6992C24.4297 33.8911 24.5854 34.0468 24.7772 34.0468H28.2526C28.4444 34.0468 28.6001 33.8911 28.6001 33.6992V26.2063C29.1618 25.7226 29.8853 25.5683 30.4775 25.8199C31.0517 26.0625 31.3804 26.6547 31.3804 27.4436V33.6992C31.3804 33.8911 31.5361 34.0468 31.728 34.0468H35.2033C35.3952 34.0468 35.5509 33.8911 35.5509 33.6992V26.7436C35.5113 23.8876 34.1677 22.8304 33.0465 22.4467Z"
                            fill="white" />
                    </svg>